<svg width="168" height="168" viewBox="0 0 168 168" fill="none" xmlns="http://www.w3.org/2000/svg">
<path d="M4.45105 70.9225C38.479 46.3377 58.5421 44.9477 96.5885 70.9225" stroke="white" stroke-width="4"/>
<path d="M4.45098 70.3719C5.3493 73.7755 -11.6254 5.09454 49.1403 2.08882C109.906 -0.916894 97.6496 73.3802 96.5884 70.3719" stroke="white" stroke-width="4"/>
<path d="M96.9459 5.89088C121.578 39.854 122.97 59.8789 96.9459 97.8528" stroke="white" stroke-width="4"/>
<path d="M97.4976 5.89081C94.0875 6.78741 162.9 -10.1549 165.911 50.495C168.922 111.145 94.4836 98.9119 97.4976 97.8527" stroke="white" stroke-width="4"/>
<path d="M163.237 97.0775C129.209 121.662 109.146 123.052 71.0995 97.0775" stroke="white" stroke-width="4"/>
<path d="M163.237 97.6281C162.339 94.2245 179.313 162.905 118.548 165.911C57.7819 168.917 70.0383 94.6198 71.0995 97.6281" stroke="white" stroke-width="4"/>
<path d="M71.054 163.292C46.4223 129.329 45.0297 109.304 71.054 71.3301" stroke="white" stroke-width="4"/>
<path d="M70.5024 163.292C73.9125 162.395 5.10045 179.338 2.08899 118.688C-0.922462 58.0379 73.5164 70.271 70.5024 71.3302" stroke="white" stroke-width="4"/>
<path d="M2.66956 68.9567C2.66956 69.1534 2.68343 69.3433 2.69479 69.5359C2.70682 69.7402 2.82095 69.9622 2.82095 70.1768C2.82095 70.4707 2.93592 70.8344 3.06767 71.0974C3.28714 71.5355 3.69959 71.773 4.18073 71.8264C4.35475 71.8457 4.53512 71.8967 4.71062 71.9285C4.89827 71.9626 5.08611 71.9537 5.27836 71.9537C5.34624 71.9537 5.49606 71.9003 5.55872 71.8655C5.62944 71.8263 5.8541 71.7522 5.7732 71.7522" stroke="white" stroke-linecap="round"/>
<path d="M3.49804 69.2668C3.48328 69.2945 3.48911 69.3341 3.49051 69.3635C3.4965 69.4889 3.51109 69.6144 3.5314 69.7383C3.57859 70.0263 3.6552 70.313 3.72936 70.5952C3.74435 70.6522 3.75944 70.7092 3.77347 70.7665C3.774 70.7686 3.7871 70.818 3.78423 70.8164C3.70367 70.7717 3.64698 70.6035 3.61747 70.5286C3.51073 70.2579 3.44702 69.9695 3.37432 69.6883C3.37223 69.6803 3.3125 69.4825 3.35495 69.4988C3.50195 69.5551 3.64561 69.6942 3.76486 69.7909C3.89103 69.8931 4.00139 70.0038 4.10484 70.1281C4.12937 70.1575 4.15902 70.19 4.17585 70.2236" stroke="white" stroke-linecap="round"/>
<path d="M2.69439 70.011C2.69439 70.0677 2.67195 70.1845 2.70408 70.2354C2.72681 70.2715 2.7348 70.3143 2.75733 70.3492C2.77899 70.3829 2.80849 70.4222 2.82027 70.4604C2.84356 70.5359 2.86175 70.6104 2.88321 70.6875C2.90791 70.7763 2.92883 70.8676 2.94615 70.9581C2.95501 71.0044 2.95237 71.0604 2.98166 71.0977C3.06874 71.2086 3.15404 71.3246 3.25655 71.422C3.30186 71.4651 3.34989 71.5053 3.39587 71.5477C3.42574 71.5752 3.45218 71.6126 3.4884 71.6325C3.58864 71.6875 3.68571 71.7616 3.77674 71.8306C3.79395 71.8436 3.85056 71.8986 3.87357 71.9009C3.88201 71.9018 3.86518 71.8738 3.89347 71.8832C4.02624 71.9274 4.15208 72.0018 4.28779 72.0384C4.30132 72.042 4.31592 72.0403 4.32975 72.0405C4.44493 72.0425 4.56092 72.055 4.67564 72.0647C4.7587 72.0717 4.8463 72.088 4.93009 72.0771C4.97874 72.0707 5.05369 72.0686 5.09578 72.0405" stroke="white" stroke-linecap="round"/>
<path d="M2.67505 70.3686C2.67505 70.4262 2.68785 70.4772 2.69441 70.5329C2.6955 70.5421 2.73928 70.5893 2.74713 70.6027C2.80345 70.6984 2.86742 70.7886 2.92197 70.8856C2.97544 70.9808 3.03952 71.0673 3.08658 71.1665C3.15105 71.3023 3.2164 71.4432 3.30229 71.567C3.42399 71.7424 3.56984 71.8997 3.71543 72.0551C3.78133 72.1254 3.84178 72.1995 3.91931 72.258C3.95893 72.2879 4.01625 72.3498 4.07048 72.3498C4.21672 72.3498 4.36282 72.3612 4.50944 72.3595C4.59215 72.3585 4.6746 72.3402 4.75689 72.3402C4.86269 72.3402 4.96849 72.3402 5.07428 72.3402C5.20796 72.3402 5.60711 72.3015 5.47344 72.3015" stroke="white" stroke-linecap="round"/>
<path d="M97.2127 69.1025C97.2127 68.6239 97.6177 68.2627 97.6426 67.8152C97.6589 67.5224 97.6426 67.763 97.6426 67.9225C97.6426 68.3297 97.6508 68.7002 97.7501 69.0966C97.8337 69.4305 97.965 70.149 97.965 69.4244C97.965 68.9929 98.0788 68.373 97.4276 68.6258C97.0034 68.7904 96.3583 68.9605 96.9977 69.3707C97.1896 69.4939 97.3175 69.615 97.5351 69.6926C97.6629 69.7381 97.8452 69.567 97.9412 69.6628C97.9929 69.7144 98.0139 69.9838 98.0486 70.0681C98.1431 70.2971 97.8827 69.8431 97.8576 69.8118C97.7224 69.6431 97.5365 70.1753 97.3201 70.1753" stroke="white" stroke-linecap="round"/>
<path d="M67.4283 70.474C68.1171 70.474 68.8167 70.4337 69.5037 70.474C69.5816 70.4786 70.3925 71.3611 70.5414 71.5097C71.1787 72.1458 69.1925 70.5952 69.0553 70.116C68.8383 69.3578 69.5401 69.6721 69.1578 70.3589C68.9286 70.7708 68.4221 71.5893 67.8895 71.6248C67.0424 71.6812 71.2751 71.8549 70.4261 71.8549" stroke="white" stroke-linecap="round"/>
<path d="M70.426 71.8549C69.9337 71.7935 69.422 70.8735 69.2218 70.474C68.5389 69.1108 69.2305 69.9308 70.093 70.2438C70.402 70.356 71.9738 71.3322 71.4637 71.0493C70.9398 70.7589 70.3157 70.2438 69.7342 70.2438" stroke="white" stroke-linecap="round"/>
<path d="M69.6386 164.338C70.0579 164.338 70.4516 164.295 70.8708 164.295C71.1795 164.295 70.7758 164.016 70.684 163.965C70.4679 163.847 70.2831 163.595 70.0994 163.883C69.8238 164.315 69.8487 164.97 69.3524 165.253C69.3205 165.272 69.2318 165.371 69.2553 165.35C69.3153 165.297 69.394 165.215 69.4639 165.176C69.6356 165.081 69.7236 165.079 69.9442 165.079C70.1506 165.079 70.5982 165.237 70.7835 165.089C70.9078 164.989 71.0645 164.876 71.1885 164.752C71.2489 164.692 71.2267 164.598 71.2783 164.554C71.4281 164.426 71.588 164.323 71.7513 164.21C71.7895 164.183 71.9501 164.12 71.9526 164.077C71.9596 163.957 71.954 163.868 72.0399 163.772C72.1265 163.675 72.0836 163.455 72.0836 163.331C72.0836 162.926 72.0836 162.521 72.0836 162.116" stroke="white" stroke-linecap="round"/>
<path d="M71.4287 161.331C71.7272 161.364 72.0734 161.797 72.1297 162.05C72.1853 162.3 72.5597 162.611 72.4111 162.878C72.2226 163.217 72.0015 163.576 71.7343 163.859C71.6066 163.994 71.5202 164.16 71.385 164.295C71.1065 164.573 70.7727 164.731 70.4245 164.905" stroke="white" stroke-linecap="round"/>
<path d="M70.3043 98.6723C70.3043 98.7928 70.1896 99.5725 70.0936 99.4823C69.8274 99.2322 69.6722 98.5467 69.6722 98.2167C69.6722 97.8127 69.4336 98.4241 69.4654 98.5672C69.5163 98.7957 69.875 99.4596 70.078 99.0617C70.2654 98.6946 70.3646 98.2795 70.5501 97.909C70.5844 97.8407 70.7884 97.6301 70.7101 97.8311C70.5552 98.2287 70.4865 98.6904 70.5189 99.1279C70.5346 99.3384 70.7257 100.445 70.7257 99.6848C70.7257 99.4647 70.6719 99.1649 70.796 98.9683C70.8899 98.8193 70.9364 98.7839 70.9364 98.6022" stroke="white" stroke-linecap="round"/>
<path d="M98.1164 98.3919C98.1504 98.6979 98.5533 99.1209 98.7133 99.4084C98.7636 99.4986 98.7949 99.9718 98.9592 99.6849C99.0809 99.4722 99.4508 99.237 99.4508 98.9839C99.4508 98.6603 99.3917 98.4485 99.3064 98.1505C99.2178 97.841 98.7139 98.4965 98.6938 98.5165C98.436 98.7739 97.7824 98.9841 97.6404 99.3032C97.5734 99.4536 98.7957 99.7245 98.608 99.4434" stroke="white" stroke-linecap="round"/>
<path d="M164.275 97.9012C164.275 98.4858 164.355 98.917 164.626 99.4434C164.765 99.712 164.907 100.128 164.907 99.5992C164.907 99.0674 164.757 98.6067 164.541 98.1271C164.473 97.9762 164.368 97.7176 164.205 97.6364C164.113 97.5903 163.998 97.6077 163.924 97.5157C163.819 97.384 163.621 97.5621 164.061 97.617C164.3 97.6468 164.524 97.6968 164.736 97.7572C164.99 97.8297 164.94 97.4464 164.806 97.4845C164.61 97.5403 164.612 97.691 164.346 97.691" stroke="white" stroke-linecap="round"/>
<path d="M161.817 95.8684C162.075 95.8398 162.316 95.7983 162.59 95.7983C162.925 95.7983 163.191 95.9039 163.503 95.9385C163.727 95.9633 164.023 96.0746 164.119 96.289C164.317 96.7273 165.03 97.5611 164.837 98.0414" stroke="white" stroke-linecap="round"/>
<path d="M96.5046 4.34594C96.8921 4.34594 97.2866 4.30854 97.6662 4.30854C97.9648 4.30854 98.2413 4.13743 98.5281 4.12153C98.6527 4.11462 98.3665 4.08994 98.2658 4.14023C97.7879 4.37874 97.403 4.76035 97.1041 5.19786C96.9243 5.46101 96.7479 5.72204 96.6024 6.00614C96.5883 6.03358 96.4312 6.37935 96.5087 6.34068C96.6804 6.25499 96.8181 6.07613 96.9709 5.96251C97.2732 5.73763 97.6132 5.56168 97.9285 5.35578C98.0046 5.30611 98.6382 5.02044 98.6009 4.89034C98.544 4.69134 98.1473 4.94406 98.0867 5.01916C97.9211 5.22441 97.7544 5.38838 97.535 5.5407C97.2724 5.72306 97.1239 5.96792 96.9251 6.21601C96.8456 6.31513 96.2787 7.02565 96.1298 6.95572C95.9174 6.85597 95.905 6.60879 95.905 6.40301C95.905 6.23017 95.8758 6.03002 95.9071 5.85862C95.9255 5.75767 96.0647 5.34313 95.9425 5.61758C95.8375 5.8533 95.8675 6.1131 95.8675 6.36561C95.8675 6.59017 95.918 6.78043 95.905 7.00143C95.8977 7.12513 95.7268 6.97878 95.701 6.96403C95.6398 6.92917 95.6881 6.74984 95.7093 6.70222C95.7834 6.53572 95.6802 6.29536 95.6802 6.1412C95.6802 5.91902 95.668 5.70035 95.7155 5.48668C95.7692 5.24552 95.9247 4.99435 96.0382 4.77398C96.2031 4.45408 96.6905 4.2808 97.0292 4.27114C97.246 4.26495 97.4639 4.27114 97.6808 4.27114C97.8476 4.27114 98.0465 4.15488 98.0784 4.34594" stroke="white" stroke-linecap="round"/>
</svg>
