<svg width="172" height="172" viewBox="0 0 172 172" fill="none" xmlns="http://www.w3.org/2000/svg">
<path d="M6.45105 72.9225C40.479 48.3377 60.5421 46.9477 98.5885 72.9225" stroke="white" stroke-width="8"/>
<path d="M6.45098 72.3719C7.3493 75.7755 -9.62537 7.09454 51.1403 4.08882C111.906 1.08311 99.6496 75.3802 98.5884 72.3719" stroke="white" stroke-width="8"/>
<path d="M98.9459 7.89088C123.578 41.854 124.97 61.8789 98.9459 99.8528" stroke="white" stroke-width="8"/>
<path d="M99.4976 7.89081C96.0875 8.78741 164.9 -8.15491 167.911 52.495C170.922 113.145 96.4836 100.912 99.4976 99.8527" stroke="white" stroke-width="8"/>
<path d="M165.237 99.0775C131.209 123.662 111.146 125.052 73.0995 99.0775" stroke="white" stroke-width="8"/>
<path d="M165.237 99.6281C164.339 96.2245 181.313 164.905 120.548 167.911C59.7819 170.917 72.0383 96.6198 73.0995 99.6281" stroke="white" stroke-width="8"/>
<path d="M73.054 165.292C48.4223 131.329 47.0297 111.304 73.054 73.3301" stroke="white" stroke-width="8"/>
<path d="M72.5024 165.292C75.9125 164.395 7.10045 181.338 4.08899 120.688C1.07754 60.0379 75.5164 72.271 72.5024 73.3302" stroke="white" stroke-width="8"/>
<path d="M4.66956 70.9567C4.66956 71.1534 4.68343 71.3433 4.69479 71.5359C4.70682 71.7402 4.82095 71.9622 4.82095 72.1768C4.82095 72.4707 4.93592 72.8344 5.06767 73.0974C5.28714 73.5355 5.69959 73.773 6.18073 73.8264C6.35475 73.8457 6.53512 73.8967 6.71062 73.9285C6.89827 73.9626 7.08611 73.9537 7.27836 73.9537C7.34624 73.9537 7.49606 73.9003 7.55872 73.8655C7.62944 73.8263 7.8541 73.7522 7.7732 73.7522" stroke="white" stroke-width="8" stroke-linecap="round"/>
<path d="M5.49804 71.2668C5.48328 71.2945 5.48911 71.3341 5.49051 71.3635C5.4965 71.4889 5.51109 71.6144 5.5314 71.7383C5.57859 72.0263 5.6552 72.313 5.72936 72.5952C5.74435 72.6522 5.75944 72.7092 5.77347 72.7665C5.774 72.7686 5.7871 72.818 5.78423 72.8164C5.70367 72.7717 5.64698 72.6035 5.61747 72.5286C5.51073 72.2579 5.44702 71.9695 5.37432 71.6883C5.37223 71.6803 5.3125 71.4825 5.35495 71.4988C5.50195 71.5551 5.64561 71.6942 5.76486 71.7909C5.89103 71.8931 6.00139 72.0038 6.10484 72.1281C6.12937 72.1575 6.15902 72.19 6.17585 72.2236" stroke="white" stroke-width="8" stroke-linecap="round"/>
<path d="M4.69439 72.011C4.69439 72.0677 4.67195 72.1845 4.70408 72.2354C4.72681 72.2715 4.7348 72.3143 4.75733 72.3492C4.77899 72.3829 4.80849 72.4222 4.82027 72.4604C4.84356 72.5359 4.86175 72.6104 4.88321 72.6875C4.90791 72.7763 4.92883 72.8676 4.94615 72.9581C4.95501 73.0044 4.95237 73.0604 4.98166 73.0977C5.06874 73.2086 5.15404 73.3246 5.25655 73.422C5.30186 73.4651 5.34989 73.5053 5.39587 73.5477C5.42574 73.5752 5.45218 73.6126 5.4884 73.6325C5.58864 73.6875 5.68571 73.7616 5.77674 73.8306C5.79395 73.8436 5.85056 73.8986 5.87357 73.9009C5.88201 73.9018 5.86518 73.8738 5.89347 73.8832C6.02624 73.9274 6.15208 74.0018 6.28779 74.0384C6.30132 74.042 6.31592 74.0403 6.32975 74.0405C6.44493 74.0425 6.56092 74.055 6.67564 74.0647C6.7587 74.0717 6.8463 74.088 6.93009 74.0771C6.97874 74.0707 7.05369 74.0686 7.09578 74.0405" stroke="white" stroke-width="8" stroke-linecap="round"/>
<path d="M4.67505 72.3686C4.67505 72.4262 4.68785 72.4772 4.69441 72.5329C4.6955 72.5421 4.73928 72.5893 4.74713 72.6027C4.80345 72.6984 4.86742 72.7886 4.92197 72.8856C4.97544 72.9808 5.03952 73.0673 5.08658 73.1665C5.15105 73.3023 5.2164 73.4432 5.30229 73.567C5.42399 73.7424 5.56984 73.8997 5.71543 74.0551C5.78133 74.1254 5.84178 74.1995 5.91931 74.258C5.95893 74.2879 6.01625 74.3498 6.07048 74.3498C6.21672 74.3498 6.36282 74.3612 6.50944 74.3595C6.59215 74.3585 6.6746 74.3402 6.75689 74.3402C6.86269 74.3402 6.96849 74.3402 7.07428 74.3402C7.20796 74.3402 7.60711 74.3015 7.47344 74.3015" stroke="white" stroke-width="8" stroke-linecap="round"/>
<path d="M99.2127 71.1025C99.2127 70.6239 99.6177 70.2627 99.6426 69.8152C99.6589 69.5224 99.6426 69.763 99.6426 69.9225C99.6426 70.3297 99.6508 70.7002 99.7501 71.0966C99.8337 71.4305 99.965 72.149 99.965 71.4244C99.965 70.9929 100.079 70.373 99.4276 70.6258C99.0034 70.7904 98.3583 70.9605 98.9977 71.3707C99.1896 71.4939 99.3175 71.615 99.5351 71.6926C99.6629 71.7381 99.8452 71.567 99.9412 71.6628C99.9929 71.7144 100.014 71.9838 100.049 72.0681C100.143 72.2971 99.8827 71.8431 99.8576 71.8118C99.7224 71.6431 99.5365 72.1753 99.3201 72.1753" stroke="white" stroke-width="8" stroke-linecap="round"/>
<path d="M69.4283 72.474C70.1171 72.474 70.8167 72.4337 71.5037 72.474C71.5816 72.4786 72.3925 73.3611 72.5414 73.5097C73.1787 74.1458 71.1925 72.5952 71.0553 72.116C70.8383 71.3578 71.5401 71.6721 71.1578 72.3589C70.9286 72.7708 70.4221 73.5893 69.8895 73.6248C69.0424 73.6812 73.2751 73.8549 72.4261 73.8549" stroke="white" stroke-width="8" stroke-linecap="round"/>
<path d="M72.426 73.8549C71.9337 73.7935 71.422 72.8735 71.2218 72.474C70.5389 71.1108 71.2305 71.9308 72.093 72.2438C72.402 72.356 73.9738 73.3322 73.4637 73.0493C72.9398 72.7589 72.3157 72.2438 71.7342 72.2438" stroke="white" stroke-width="8" stroke-linecap="round"/>
<path d="M71.6386 166.338C72.0579 166.338 72.4516 166.295 72.8708 166.295C73.1795 166.295 72.7758 166.016 72.684 165.965C72.4679 165.847 72.2831 165.595 72.0994 165.883C71.8238 166.315 71.8487 166.97 71.3524 167.253C71.3205 167.272 71.2318 167.371 71.2553 167.35C71.3153 167.297 71.394 167.215 71.4639 167.176C71.6356 167.081 71.7236 167.079 71.9442 167.079C72.1506 167.079 72.5982 167.237 72.7835 167.089C72.9078 166.989 73.0645 166.876 73.1885 166.752C73.2489 166.692 73.2267 166.598 73.2783 166.554C73.4281 166.426 73.588 166.323 73.7513 166.21C73.7895 166.183 73.9501 166.12 73.9526 166.077C73.9596 165.957 73.954 165.868 74.0399 165.772C74.1265 165.675 74.0836 165.455 74.0836 165.331C74.0836 164.926 74.0836 164.521 74.0836 164.116" stroke="white" stroke-width="8" stroke-linecap="round"/>
<path d="M73.4287 163.331C73.7272 163.364 74.0734 163.797 74.1297 164.05C74.1853 164.3 74.5597 164.611 74.4111 164.878C74.2226 165.217 74.0015 165.576 73.7343 165.859C73.6066 165.994 73.5202 166.16 73.385 166.295C73.1065 166.573 72.7727 166.731 72.4245 166.905" stroke="white" stroke-width="8" stroke-linecap="round"/>
<path d="M72.3043 100.672C72.3043 100.793 72.1896 101.572 72.0936 101.482C71.8274 101.232 71.6722 100.547 71.6722 100.217C71.6722 99.8127 71.4336 100.424 71.4654 100.567C71.5163 100.796 71.875 101.46 72.078 101.062C72.2654 100.695 72.3646 100.279 72.5501 99.909C72.5844 99.8407 72.7884 99.6301 72.7101 99.8311C72.5552 100.229 72.4865 100.69 72.5189 101.128C72.5346 101.338 72.7257 102.445 72.7257 101.685C72.7257 101.465 72.6719 101.165 72.796 100.968C72.8899 100.819 72.9364 100.784 72.9364 100.602" stroke="white" stroke-width="8" stroke-linecap="round"/>
<path d="M100.116 100.392C100.15 100.698 100.553 101.121 100.713 101.408C100.764 101.499 100.795 101.972 100.959 101.685C101.081 101.472 101.451 101.237 101.451 100.984C101.451 100.66 101.392 100.448 101.306 100.15C101.218 99.841 100.714 100.496 100.694 100.517C100.436 100.774 99.7824 100.984 99.6404 101.303C99.5734 101.454 100.796 101.724 100.608 101.443" stroke="white" stroke-width="8" stroke-linecap="round"/>
<path d="M166.275 99.9012C166.275 100.486 166.355 100.917 166.626 101.443C166.765 101.712 166.907 102.128 166.907 101.599C166.907 101.067 166.757 100.607 166.541 100.127C166.473 99.9762 166.368 99.7176 166.205 99.6364C166.113 99.5903 165.998 99.6077 165.924 99.5157C165.819 99.384 165.621 99.5621 166.061 99.617C166.3 99.6468 166.524 99.6968 166.736 99.7572C166.99 99.8297 166.94 99.4464 166.806 99.4845C166.61 99.5403 166.612 99.691 166.346 99.691" stroke="white" stroke-width="8" stroke-linecap="round"/>
<path d="M163.817 97.8684C164.075 97.8398 164.316 97.7983 164.59 97.7983C164.925 97.7983 165.191 97.9039 165.503 97.9385C165.727 97.9633 166.023 98.0746 166.119 98.289C166.317 98.7273 167.03 99.5611 166.837 100.041" stroke="white" stroke-width="8" stroke-linecap="round"/>
<path d="M98.5046 6.34594C98.8921 6.34594 99.2866 6.30854 99.6662 6.30854C99.9648 6.30854 100.241 6.13743 100.528 6.12153C100.653 6.11462 100.367 6.08994 100.266 6.14023C99.7879 6.37874 99.403 6.76035 99.1041 7.19786C98.9243 7.46101 98.7479 7.72204 98.6024 8.00614C98.5883 8.03358 98.4312 8.37935 98.5087 8.34068C98.6804 8.25499 98.8181 8.07613 98.9709 7.96251C99.2732 7.73763 99.6132 7.56168 99.9285 7.35578C100.005 7.30611 100.638 7.02044 100.601 6.89034C100.544 6.69134 100.147 6.94406 100.087 7.01916C99.9211 7.22441 99.7544 7.38838 99.535 7.5407C99.2724 7.72306 99.1239 7.96792 98.9251 8.21601C98.8456 8.31513 98.2787 9.02565 98.1298 8.95572C97.9174 8.85597 97.905 8.60879 97.905 8.40301C97.905 8.23017 97.8758 8.03002 97.9071 7.85862C97.9255 7.75767 98.0647 7.34313 97.9425 7.61758C97.8375 7.8533 97.8675 8.1131 97.8675 8.36561C97.8675 8.59017 97.918 8.78043 97.905 9.00143C97.8977 9.12513 97.7268 8.97878 97.701 8.96403C97.6398 8.92917 97.6881 8.74984 97.7093 8.70222C97.7834 8.53572 97.6802 8.29536 97.6802 8.1412C97.6802 7.91902 97.668 7.70035 97.7155 7.48668C97.7692 7.24552 97.9247 6.99435 98.0382 6.77398C98.2031 6.45408 98.6905 6.2808 99.0292 6.27114C99.246 6.26495 99.4639 6.27114 99.6808 6.27114C99.8476 6.27114 100.047 6.15488 100.078 6.34594" stroke="white" stroke-width="8" stroke-linecap="round"/>
</svg>
